<svg width="290" height="500" viewBox="0 0 290 500" xmlns="http://www.w3.org/2000/svg">
  <rect x="0" y="0" width="290" height="500" fill="#22225E"/>
  <rect x="270" y="1" width="19" height="498" fill="#FFFFFF"/>
  <g transform="translate(75,10),rotate(90,100,100)">
    <text class="side anchor-start"># 290329</text>
  </g>
  <g transform="translate(75,490),rotate(90,100,100)">
    1
    <text class="side anchor-end">0xEcdA812a67Ff9EB0257732D6a361008864275fCC</text>
  </g>
  <g class="anchor-end" transform="translate(20,100)">
    <text class="hero">
      <tspan class="sub" x="0">Fund</tspan>
      <tspan class="title" x="0" dy="20">UNICEF</tspan>
    </text>
    <text class="hero" dy="50">
      <tspan class="sub" x="0">Focus</tspan>
      <tspan class="title" x="0" dy="20">War</tspan>
    </text>
    <text class="hero" dy="100">
      <tspan class="sub" x="0">Support</tspan>
      <tspan class="title" x="0" dy="20">1000 <tspan>USDC</tspan></tspan>
    </text>
  </g>
  <g transform="translate(16,16)">
    <style type="text/css">
      .st0{fill:#FFFFFF;}
	  .st1{fill:url(#SVGID_1_);}
	  .st2{fill:url(#SVGID_2_);}
	  .st3{fill:url(#SVGID_3_);}
      text{font-weight:100;}
      text.side{font-size:0.8rem;}
      text.anchor-start{text-anchor:start;}
      text.anchor-middle{text-anchor:middle;}
      text.anchor-end{text-anchor:end;}

      text.hero{fill:rgba(255,255,255,1);}
      text.hero&gt;tspan.title{display:block;font-size:1.2rem;}
      text.hero&gt;tspan.title&gt;tspan{font-size:0.8rem;font-weight:200;}
      text.hero&gt;tspan.sub{opacity:0.5;font-size:0.8rem;}
    </style>
    <path class="st0" d="M52.7,27.5l3.6-2.1c0.8,2.2,2.4,3.3,4.9,3.3c2.4,0,3.4-0.9,3.4-2.3c0-0.7-0.4-1.4-1-1.7
	c-0.7-0.4-1.9-0.9-3.6-1.4c-1.9-0.6-3.1-1-4.4-2c-1.3-0.9-2-2.4-2-4.4s0.7-3.5,2-4.6c1.4-1.1,3.2-1.8,5-1.7c3.4,0,6.1,1.8,7.6,4.8
	l-3.5,2c-0.9-1.8-2.2-2.7-4.1-2.7c-1.7,0-2.8,0.9-2.8,2.1c0,0.7,0.3,1.3,0.8,1.6c0.6,0.4,1.6,0.9,3.2,1.3l1.5,0.5
	c0.5,0.2,0.9,0.3,1.4,0.5s0.9,0.4,1.3,0.7c0.7,0.4,1.6,1.1,2,1.9c0.5,0.9,0.8,2,0.8,3c0,2-0.7,3.5-2.2,4.7c-1.4,1.1-3.3,1.7-5.6,1.7
	C56.8,32.7,53.9,30.7,52.7,27.5z M80.7,32.7c-6,0.1-11-4.7-11.1-10.8v-0.3c-0.1-2.9,1.1-5.8,3.2-7.8c4.3-4.3,11.3-4.3,15.7,0
	c2.1,2,3.3,4.9,3.2,7.8c0.1,6-4.8,11-10.8,11.1C80.8,32.8,80.8,32.8,80.7,32.7z M80.7,28.6c1.8,0.1,3.6-0.7,4.9-2s2-3.1,2-5
	c0.1-1.9-0.7-3.7-2-5c-2.7-2.6-7.1-2.6-9.8,0c-1.3,1.3-2,3.1-2,5c-0.1,1.9,0.7,3.7,2,5C77.1,28,78.8,28.7,80.7,28.6z M92.1,27.5
	l3.6-2.1c0.8,2.2,2.5,3.3,4.9,3.3s3.4-0.9,3.4-2.3c0-0.7-0.4-1.4-1-1.7c-0.7-0.4-1.9-0.9-3.6-1.4c-1.9-0.6-3.1-1-4.4-2
	c-1.3-0.9-2-2.4-2-4.4s0.7-3.5,2-4.6c1.4-1.1,3.2-1.8,5-1.7c3.4,0,6.1,1.8,7.6,4.8l-3.5,2c-0.9-1.8-2.2-2.7-4.1-2.7
	c-1.7,0-2.8,0.9-2.8,2.1c0,0.7,0.3,1.3,0.8,1.6c0.6,0.4,1.6,0.9,3.2,1.3l1.5,0.5c0.5,0.2,0.9,0.3,1.4,0.5s0.9,0.4,1.3,0.7
	c0.7,0.4,1.6,1.1,2,1.9c0.5,0.9,0.8,2,0.8,3c0,2-0.7,3.5-2.2,4.7s-3.3,1.7-5.6,1.7C96.2,32.7,93.3,30.7,92.1,27.5z M119.6,29.5
	c-2.1-2.1-3.2-4.9-3.1-7.8c0-3.1,1-5.7,3.1-7.8s4.7-3.2,7.9-3.2c1.9,0,3.7,0.5,5.4,1.4c1.6,0.9,2.9,2.2,3.8,3.7l-1.4,0.8
	c-0.7-1.3-1.8-2.4-3.1-3.2c-1.4-0.8-3-1.2-4.6-1.2c-2.8,0-5,0.9-6.8,2.7s-2.7,4.2-2.6,6.7c-0.1,2.5,0.9,4.9,2.6,6.7
	c1.8,1.8,4.1,2.7,6.8,2.7c3.3,0,6.3-1.8,7.7-4.5l1.4,0.8c-1.7,3.2-5.3,5.2-9.2,5.2C124.3,32.7,121.7,31.6,119.6,29.5z M153.7,11h1.6
	v21.3h-1.6V22.1h-12.4v10.2h-1.6V11h1.6v9.6h12.4V11z M174.2,32.3l-2.1-5.4h-10.7l-2.1,5.4h-1.7l8.3-21.3h1.7l8.2,21.3H174.2
	L174.2,32.3z M162.1,25.4h9.5L166.8,13L162.1,25.4L162.1,25.4z M178.3,11h1.6v21.3h-1.6V11z M198.4,11h1.6v21.3h-1.4L186,14v18.3
	h-1.6V11h1.4l12.6,18.3V11L198.4,11z"/>
    <linearGradient id="SVGID_1_" gradientUnits="userSpaceOnUse" x1="57.9132" y1="179.2715" x2="98.6549" y2="220.0242" gradientTransform="matrix(0.3097 0 0 0.3097 7.629395e-06 -55.7609)">
      <stop offset="0" style="stop-color:#365FC8"/>
      <stop offset="5.000000e-02" style="stop-color:#3368CA"/>
      <stop offset="0.37" style="stop-color:#229ED4"/>
      <stop offset="0.65" style="stop-color:#15C6DC"/>
      <stop offset="0.87" style="stop-color:#0DDEE0"/>
      <stop offset="1" style="stop-color:#0AE7E2"/>
    </linearGradient>
    <path class="st1" d="M14,3.7l6.2,6.2c0.9-0.9,2.4-0.9,3.3,0s0.9,2.4,0,3.3l0,0c2.5-2.4,5.9-3.6,9.4-3.2c-0.8-6-6.5-10.3-12.5-9.5
	C18,0.8,15.7,1.9,14,3.7L14,3.7z"/>
    <linearGradient id="SVGID_2_" gradientUnits="userSpaceOnUse" x1="79.7356" y1="320.7304" x2="38.9846" y2="279.9794" gradientTransform="matrix(0.3097 0 0 0.3097 7.629395e-06 -55.7609)">
      <stop offset="0" style="stop-color:#365FC8"/>
      <stop offset="5.000000e-02" style="stop-color:#3368CA"/>
      <stop offset="0.37" style="stop-color:#229ED4"/>
      <stop offset="0.65" style="stop-color:#15C6DC"/>
      <stop offset="0.87" style="stop-color:#0DDEE0"/>
      <stop offset="1" style="stop-color:#0AE7E2"/>
    </linearGradient>
    <path class="st2" d="M19.1,33.4c-0.9-0.9-0.9-2.5,0-3.4c-2.4,2.4-5.9,3.7-9.4,3.3c0.8,6.1,6.4,10.3,12.5,9.5
	c2.4-0.3,4.6-1.4,6.3-3.2l-6.2-6.2C21.4,34.3,20,34.3,19.1,33.4z"/>
    <linearGradient id="SVGID_3_" gradientUnits="userSpaceOnUse" x1="27.8412" y1="209.1809" x2="109.3912" y2="290.7309" gradientTransform="matrix(0.3097 0 0 0.3097 7.629395e-06 -55.7609)">
      <stop offset="0" style="stop-color:#DE016A"/>
      <stop offset="0.18" style="stop-color:#D8016A"/>
      <stop offset="0.41" style="stop-color:#C8026A"/>
      <stop offset="0.66" style="stop-color:#AD0469"/>
      <stop offset="0.94" style="stop-color:#870668"/>
      <stop offset="1" style="stop-color:#7F0768"/>
    </linearGradient>
    <path class="st3" d="M39.2,13.2c-1.7-1.7-3.9-2.8-6.3-3.2l0,0c-3.4-0.5-6.9,0.7-9.4,3.2L12.8,23.9l0,0c-0.9,0.9-2.4,0.8-3.3-0.1
	c-0.8-0.9-0.8-2.3,0-3.2L20.2,9.9L14,3.7L3.3,14.4C-1,18.7-1,25.8,3.3,30.1c1.7,1.7,4,2.8,6.3,3.2l0,0c3.4,0.5,6.9-0.7,9.4-3.2
	l10.7-10.7l0.2-0.2c1-0.8,2.5-0.6,3.3,0.4c0.7,0.9,0.7,2.2-0.2,3.1L22.3,33.4l6.2,6.2l10.7-10.7C43.6,24.6,43.6,17.6,39.2,13.2z"/>
  </g>
</svg>
